<svg width="651" height="150" viewBox="0 0 651 150" fill="none" xmlns="http://www.w3.org/2000/svg">
<circle cx="75" cy="75" r="75" fill="black"/>
<path d="M237.677 60.2112C240.6 60.1185 243.034 59.8268 244.977 59.3361C246.921 58.8454 248.474 58.1234 249.635 57.1703C250.818 56.1955 251.654 54.957 252.142 53.4548C252.631 51.9526 252.881 50.1329 252.893 47.9955L252.942 39.1627L238.777 39.0832L238.794 36.0081L252.965 35.1061L253.005 27.9417C253.017 25.7389 253.454 23.8111 254.313 22.1584C255.195 20.4839 256.425 19.0514 258.002 17.8606C259.579 16.6481 261.482 15.6555 263.711 14.8828C265.94 14.1102 268.419 13.5025 271.147 13.0598C273.876 12.5952 276.812 12.2846 279.953 12.1277C283.095 11.949 286.389 11.8693 289.835 11.8887C294.218 11.9133 297.979 12.1743 301.117 12.6717C304.255 13.1473 306.825 13.816 308.826 14.6778C310.828 15.5179 312.295 16.5294 313.226 17.7123C314.179 18.8954 314.652 20.2067 314.643 21.6461C314.637 22.7366 314.304 23.7598 313.645 24.7158C312.985 25.6499 312.032 26.4733 310.785 27.1861C309.538 27.877 308.008 28.4246 306.195 28.8288C304.383 29.2113 302.31 29.3959 299.976 29.3828C297.861 29.371 295.877 29.1854 294.025 28.826C292.195 28.4668 290.595 27.9889 289.224 27.3923C287.853 26.7958 286.778 26.1136 285.997 25.3459C285.216 24.5563 284.828 23.7254 284.833 22.853C284.838 22.0024 285.115 21.2079 285.664 20.4694C286.214 19.731 287.024 19.0921 288.096 18.5529C289.19 17.9919 290.555 17.5634 292.193 17.2672C293.83 16.9492 295.728 16.7963 297.888 16.8084C297.104 16.4769 296.222 16.2211 295.242 16.0411C294.262 15.8393 293.237 15.7354 292.168 15.7295C289.835 15.7164 287.947 15.913 286.505 16.3193C285.064 16.7256 283.926 17.2972 283.093 18.0341C282.282 18.7493 281.732 19.6077 281.443 20.6093C281.154 21.611 281.006 22.7116 280.999 23.9111C280.991 25.3505 281.017 26.6702 281.075 27.8701C281.156 29.0701 281.237 30.1283 281.319 31.0448C281.423 31.9614 281.517 32.7253 281.601 33.3365C281.685 33.9258 281.726 34.3514 281.725 34.6131L281.723 34.8094L302.628 34.9266L302.603 39.4412L281.698 39.3239L281.649 48.1568C281.635 50.4904 282.028 52.4228 282.827 53.954C283.625 55.4852 284.818 56.7242 286.404 57.6709C288.013 58.596 290.005 59.2724 292.38 59.7001C294.755 60.1278 297.512 60.4159 300.652 60.5644L300.635 63.6395L237.66 63.2863L237.677 60.2112ZM316.195 56.4967C316.206 54.5774 316.804 52.9886 317.988 51.7303C319.173 50.4719 320.738 49.4884 322.683 48.7795C324.628 48.0489 326.845 47.5488 329.333 47.2792C331.843 46.9879 334.417 46.8497 337.056 46.8645C339.39 46.8776 341.679 46.9122 343.926 46.9684C346.172 47.0247 348.287 47.102 350.271 47.2003C352.277 47.277 354.098 47.3745 355.733 47.4927C357.368 47.6109 358.741 47.7386 359.853 47.8757L359.893 40.7766C359.903 39.0319 359.66 37.5583 359.165 36.356C358.692 35.1538 357.945 34.1899 356.924 33.4645C355.925 32.7173 354.641 32.1758 353.073 31.8398C351.504 31.5039 349.651 31.3299 347.514 31.3179C345.965 31.3092 344.406 31.3223 342.835 31.3571C341.287 31.392 339.858 31.4495 338.549 31.5294C340.599 31.5409 342.474 31.704 344.173 32.0189C345.873 32.312 347.332 32.7346 348.55 33.2866C349.768 33.8387 350.702 34.5092 351.352 35.298C352.024 36.0651 352.357 36.9285 352.352 37.8881C352.346 38.9786 351.948 39.936 351.158 40.7604C350.368 41.5629 349.285 42.233 347.908 42.7705C346.552 43.3082 344.947 43.7135 343.092 43.9867C341.258 44.2599 339.284 44.3906 337.168 44.3788C335.227 44.3679 333.374 44.1721 331.61 43.7914C329.867 43.4109 328.321 42.9006 326.973 42.2605C325.624 41.5986 324.549 40.8292 323.747 39.9523C322.967 39.0537 322.58 38.0919 322.585 37.0669C322.591 35.9982 323.011 35.03 323.845 34.1623C324.7 33.2947 325.839 32.5377 327.26 31.8913C328.703 31.2233 330.364 30.6547 332.242 30.1854C334.142 29.7162 336.14 29.3348 338.236 29.0412C340.353 28.726 342.513 28.5091 344.717 28.3906C346.92 28.2502 349.047 28.1858 351.097 28.1973C354.129 28.2143 357.193 28.2642 360.29 28.347C363.386 28.408 366.373 28.5774 369.251 28.8553C372.128 29.1332 374.83 29.5518 377.357 30.1112C379.884 30.6707 382.082 31.4463 383.953 32.4383C385.823 33.4302 387.288 34.6707 388.348 36.1598C389.43 37.6489 389.965 39.4731 389.953 41.6322L389.91 49.451C389.898 51.4793 390.02 53.1266 390.274 54.393C390.551 55.6378 390.927 56.6104 391.403 57.311C391.879 57.9898 392.444 58.451 393.096 58.6946C393.75 58.9163 394.447 59.0293 395.188 59.0335C395.864 59.0373 396.509 58.91 397.121 58.6517C397.733 58.3716 398.281 57.9603 398.763 57.4177C399.246 56.8752 399.643 56.2013 399.952 55.3961C400.262 54.569 400.442 53.6213 400.492 52.5528L404.189 52.5736C404.178 54.5364 403.874 56.225 403.277 57.6393C402.68 59.0319 401.845 60.2158 400.771 61.1913C399.718 62.1668 398.46 62.9449 396.995 63.5256C395.531 64.0845 393.925 64.5226 392.179 64.8399C390.454 65.1574 388.621 65.3543 386.679 65.4307C384.738 65.5288 382.753 65.5722 380.724 65.5608C378.26 65.547 375.981 65.4797 373.888 65.3589C371.817 65.2383 369.953 64.9879 368.298 64.6078C366.642 64.2496 365.217 63.7291 364.021 63.0462C362.825 62.3634 361.881 61.453 361.19 60.315C360.27 60.9423 359.1 61.5574 357.679 62.1601C356.28 62.7629 354.521 63.3092 352.403 63.799C350.306 64.267 347.796 64.6346 344.872 64.9018C341.948 65.1907 338.523 65.3242 334.597 65.3022C332.024 65.2877 329.615 65.0779 327.371 64.6728C325.148 64.2677 323.199 63.6897 321.524 62.9388C319.871 62.188 318.567 61.2755 317.614 60.2015C316.66 59.1056 316.187 57.8707 316.195 56.4967ZM345.156 55.056C345.154 55.4922 345.238 55.9616 345.41 56.4642C345.604 56.9451 345.906 57.3939 346.318 57.8106C346.752 58.2275 347.307 58.5795 347.981 58.8669C348.677 59.1325 349.538 59.2682 350.563 59.2739C351.152 59.2772 351.796 59.2699 352.494 59.252C353.213 59.2343 353.977 59.184 354.785 59.1013C355.592 58.9968 356.444 58.838 357.339 58.6249C358.234 58.4118 359.163 58.1117 360.125 57.7245C359.912 56.8291 359.809 55.7598 359.816 54.5167L359.835 51.0162C358.898 50.9673 357.949 50.9402 356.99 50.9348C356.03 50.9076 355.103 50.8915 354.209 50.8865C352.726 50.8782 351.417 50.9254 350.282 51.0281C349.148 51.1308 348.198 51.3435 347.433 51.6664C346.689 51.9676 346.12 52.3897 345.724 52.9327C345.35 53.4759 345.161 54.1837 345.156 55.056ZM411.253 61.1846C413.216 61.1302 414.929 60.9762 416.392 60.7227C417.854 60.4692 419.111 60.0618 420.161 59.5007C421.211 58.9395 422.076 58.1919 422.758 57.2579C423.439 56.3239 423.98 55.1382 424.381 53.701C424.803 52.2421 425.097 50.4989 425.261 48.4715C425.425 46.4222 425.515 44.0345 425.53 41.3083C425.553 37.1645 425.288 33.8042 424.736 31.2275C424.183 28.6508 423.3 26.6502 422.087 25.2258C420.874 23.7795 419.309 22.8002 417.392 22.2878C415.498 21.7755 413.198 21.5118 410.494 21.4966L410.511 18.4542L454.43 15.7561L454.322 35.0576C456.289 34.1962 458.301 33.3896 460.355 32.6378C462.431 31.886 464.539 31.2327 466.68 30.6776C468.842 30.1227 471.037 29.6879 473.263 29.3732C475.489 29.0585 477.769 28.9077 480.103 28.9208C481.303 28.9275 482.524 28.978 483.766 29.0722C485.009 29.1664 486.218 29.3913 487.394 29.7469C488.592 30.0807 489.712 30.5887 490.755 31.2706C491.798 31.9308 492.698 32.8519 493.455 34.0339C494.234 35.1942 494.847 36.648 495.295 38.3953C495.744 40.1427 495.961 42.2486 495.947 44.713C495.942 45.5418 495.905 46.3922 495.834 47.2642C495.786 48.1145 495.759 49.0522 495.753 50.0773C495.746 51.364 495.761 52.5419 495.799 53.6108C495.858 54.6798 496.006 55.6512 496.241 56.5249C496.476 57.3769 496.831 58.1313 497.307 58.7883C497.806 59.4236 498.49 59.9618 499.359 60.4028C500.251 60.8222 501.362 61.1447 502.691 61.3703C504.02 61.5958 505.644 61.714 507.564 61.7247L507.546 64.7999L461.877 64.5438L461.891 62.0575C462.592 61.6034 463.184 61.0069 463.668 60.2681C464.152 59.5075 464.539 58.5827 464.828 57.4938C465.14 56.405 465.365 55.1304 465.504 53.6699C465.643 52.1876 465.718 50.4977 465.729 48.6003C465.742 46.1794 465.579 44.2483 465.238 42.8069C464.919 41.3656 464.467 40.2726 463.882 39.5278C463.298 38.7611 462.603 38.2665 461.797 38.0439C461.013 37.8214 460.163 37.7076 459.247 37.7024C458.484 37.6981 457.676 37.7809 456.825 37.9506C455.995 38.0986 455.154 38.312 454.302 38.5907L454.243 49.1247C454.232 51.0222 454.288 52.6801 454.411 54.0984C454.534 55.495 454.735 56.7066 455.012 57.7332C455.312 58.76 455.7 59.6236 456.176 60.3242C456.652 61.003 457.237 61.5734 457.933 62.0353L457.919 64.5216L411.235 64.2598L411.253 61.1846ZM515.18 47.7326C515.197 44.5702 516.151 41.8274 518.039 39.5043C519.95 37.1595 522.633 35.2335 526.087 33.7261C529.542 32.197 533.681 31.0752 538.505 30.3607C543.329 29.6244 548.686 29.2727 554.574 29.3057C560.441 29.3386 565.782 29.7503 570.598 30.5406C575.435 31.3093 579.562 32.4775 582.977 34.0452C586.415 35.5912 589.064 37.5471 590.927 39.9131C592.811 42.2574 593.745 45.0107 593.727 48.1731C593.709 51.3136 592.745 54.0454 590.835 56.3684C588.946 58.6915 586.274 60.6176 582.82 62.1468C579.387 63.6543 575.248 64.7652 570.402 65.4795C565.578 66.2159 560.232 66.5676 554.365 66.5347C548.477 66.5016 543.125 66.0899 538.309 65.2996C533.493 64.531 529.367 63.3737 525.929 61.8277C522.492 60.2599 519.831 58.3039 517.947 55.9596C516.085 53.6155 515.162 50.8731 515.18 47.7326ZM547.796 47.9155C547.785 49.9438 547.926 51.8748 548.221 53.7085C548.516 55.5422 548.944 57.1586 549.503 58.5575C550.084 59.9349 550.776 61.0401 551.578 61.8734C552.402 62.685 553.338 63.0938 554.385 63.0996C555.41 63.1054 556.328 62.7071 557.139 61.9046C557.973 61.0805 558.677 59.983 559.252 58.6122C559.848 57.2197 560.305 55.6083 560.62 53.778C560.936 51.9477 561.099 50.0184 561.111 47.9902C561.122 45.9401 560.98 43.9982 560.685 42.1644C560.39 40.3089 559.952 38.6816 559.371 37.2825C558.812 35.8835 558.12 34.7673 557.296 33.9339C556.494 33.1006 555.58 32.6811 554.555 32.6753C553.508 32.6694 552.568 33.0786 551.735 33.9027C550.923 34.7269 550.219 35.8353 549.622 37.2278C549.048 38.6204 548.602 40.2428 548.287 42.0949C547.971 43.9252 547.807 45.8654 547.796 47.9155ZM212.154 131.144C211.637 130.007 211.044 128.663 210.377 127.11C209.732 125.536 209.032 123.875 208.278 122.126C207.547 120.355 206.772 118.562 205.953 116.748C205.156 114.911 204.348 113.173 203.529 111.532C202.709 109.87 201.9 108.371 201.1 107.037C200.301 105.68 199.544 104.596 198.828 103.785C198.178 103.083 197.418 102.49 196.548 102.006C195.701 101.499 194.83 101.091 193.938 100.78C193.046 100.448 192.164 100.214 191.292 100.079C190.442 99.9212 189.69 99.8406 189.036 99.837L189.053 96.7618L237.143 97.0315L237.126 100.107C235.578 100.098 234.344 100.331 233.425 100.806C232.529 101.259 232.078 101.878 232.074 102.663C232.071 103.077 232.176 103.765 232.389 104.726C232.624 105.665 232.934 106.79 233.319 108.101C233.726 109.39 234.187 110.821 234.702 112.394C235.238 113.946 235.818 115.541 236.441 117.18C237.065 118.798 237.721 120.415 238.41 122.033C239.099 123.651 239.788 125.16 240.478 126.559C240.919 125.668 241.416 124.58 241.969 123.296C242.521 121.991 243.074 120.609 243.628 119.151C244.181 117.671 244.724 116.158 245.256 114.612C245.788 113.067 246.255 111.597 246.655 110.204C247.077 108.788 247.412 107.514 247.658 106.382C247.926 105.227 248.062 104.301 248.066 103.603C248.07 102.84 247.954 102.239 247.716 101.802C247.501 101.343 247.154 100.992 246.675 100.749C246.197 100.507 245.598 100.35 244.879 100.281C244.159 100.19 243.298 100.141 242.295 100.136L242.312 97.0605L286.411 97.3078L286.394 100.383C284.409 100.372 282.925 100.647 281.94 101.209C280.977 101.77 280.494 102.444 280.489 103.229C280.487 103.621 280.592 104.287 280.805 105.226C281.04 106.165 281.361 107.29 281.768 108.601C282.175 109.89 282.647 111.311 283.183 112.862C283.72 114.414 284.311 116.009 284.956 117.649C285.601 119.266 286.268 120.884 286.957 122.502C287.668 124.098 288.379 125.585 289.091 126.963C289.51 126.158 290.007 125.082 290.581 123.733C291.156 122.362 291.753 120.882 292.373 119.293C292.993 117.683 293.602 116.029 294.2 114.331C294.798 112.633 295.331 111.055 295.797 109.596C296.285 108.116 296.674 106.831 296.964 105.742C297.275 104.632 297.432 103.869 297.434 103.455C297.436 103.106 297.362 102.756 297.211 102.407C297.082 102.057 296.812 101.739 296.399 101.453C295.986 101.146 295.388 100.902 294.603 100.723C293.841 100.523 292.828 100.419 291.563 100.412L291.58 97.3368L313.924 97.4621L313.907 100.537C311.268 100.522 309.03 100.87 307.194 101.579C305.38 102.267 304.022 103.372 303.119 104.893C302.59 105.806 301.984 106.97 301.3 108.384C300.638 109.798 299.942 111.342 299.213 113.018C298.484 114.671 297.754 116.401 297.025 118.207C296.295 119.991 295.598 121.721 294.934 123.397C294.271 125.073 293.673 126.629 293.142 128.065C292.61 129.48 292.178 130.655 291.846 131.591L260.767 131.417C260.466 130.696 260.111 129.799 259.703 128.728C259.294 127.657 258.854 126.499 258.381 125.253C257.908 123.985 257.403 122.663 256.865 121.286C256.35 119.887 255.812 118.532 255.253 117.22C254.715 115.887 254.177 114.619 253.638 113.416C253.1 112.214 252.571 111.153 252.053 110.234C251.568 111.104 251.05 112.126 250.498 113.301C249.946 114.453 249.383 115.693 248.809 117.021C248.234 118.326 247.671 119.664 247.118 121.035C246.565 122.406 246.034 123.733 245.525 125.017C245.038 126.28 244.584 127.466 244.164 128.576C243.765 129.664 243.433 130.578 243.167 131.318L212.154 131.144ZM321.234 114.646C321.252 111.484 322.205 108.741 324.094 106.418C326.005 104.073 328.687 102.147 332.142 100.64C335.596 99.1104 339.735 97.9886 344.56 97.2741C349.384 96.5378 354.74 96.1861 360.629 96.2191C366.495 96.252 371.837 96.6637 376.652 97.454C381.49 98.2227 385.616 99.3909 389.032 100.959C392.469 102.505 395.119 104.461 396.981 106.826C398.866 109.171 399.799 111.924 399.781 115.086C399.764 118.227 398.8 120.959 396.889 123.282C395 125.605 392.329 127.531 388.874 129.06C385.442 130.568 381.302 131.679 376.456 132.393C371.632 133.129 366.287 133.481 360.42 133.448C354.531 133.415 349.179 133.003 344.364 132.213C339.548 131.444 335.421 130.287 331.984 128.741C328.547 127.173 325.886 125.217 324.002 122.873C322.139 120.529 321.217 117.787 321.234 114.646ZM353.85 114.829C353.839 116.857 353.981 118.788 354.276 120.622C354.571 122.456 354.998 124.072 355.557 125.471C356.139 126.848 356.83 127.954 357.633 128.787C358.457 129.598 359.392 130.007 360.439 130.013C361.464 130.019 362.382 129.62 363.194 128.818C364.027 127.994 364.731 126.896 365.306 125.526C365.903 124.133 366.359 122.522 366.675 120.691C366.99 118.861 367.154 116.932 367.165 114.904C367.177 112.853 367.035 110.912 366.74 109.078C366.445 107.222 366.007 105.595 365.426 104.196C364.867 102.797 364.175 101.681 363.351 100.847C362.549 100.014 361.635 99.5945 360.61 99.5887C359.563 99.5828 358.623 99.992 357.789 100.816C356.978 101.64 356.274 102.749 355.677 104.141C355.102 105.534 354.657 107.156 354.341 109.008C354.025 110.839 353.862 112.779 353.85 114.829ZM409.072 129.173C411.995 129.081 414.429 128.713 416.374 128.069C418.318 127.426 419.872 126.53 421.034 125.38C422.219 124.231 423.055 122.829 423.544 121.174C424.033 119.519 424.284 117.623 424.296 115.486C424.308 113.305 424.035 111.438 423.477 109.887C422.919 108.313 422.031 107.032 420.816 106.044C419.6 105.034 418.034 104.295 416.117 103.826C414.222 103.357 411.923 103.115 409.218 103.1L409.235 100.025L453.155 97.3269L453.127 102.169C454.354 101.325 455.732 100.58 457.262 99.9345C458.793 99.2669 460.399 98.7089 462.081 98.2603C463.763 97.7899 465.499 97.4398 467.288 97.2099C469.078 96.98 470.845 96.87 472.59 96.8798C475.294 96.8949 477.627 97.137 479.587 97.606C481.569 98.0751 483.201 98.7386 484.483 99.5964C485.787 100.432 486.741 101.441 487.345 102.622C487.971 103.782 488.28 105.07 488.272 106.488C488.266 107.557 487.933 108.602 487.273 109.623C486.613 110.644 485.659 111.566 484.411 112.388C483.164 113.188 481.623 113.833 479.788 114.325C477.975 114.816 475.901 115.055 473.568 115.042C471.452 115.03 469.534 114.856 467.813 114.519C466.114 114.183 464.655 113.716 463.437 113.121C462.219 112.503 461.274 111.778 460.603 110.946C459.953 110.113 459.631 109.195 459.637 108.192C459.643 107.014 459.998 106.002 460.701 105.155C461.425 104.287 462.345 103.583 463.461 103.044C464.598 102.484 465.854 102.066 467.23 101.79C468.605 101.514 469.959 101.369 471.289 101.354C469.283 101.343 467.45 101.42 465.792 101.585C464.155 101.751 462.616 102.015 461.174 102.377C459.733 102.718 458.356 103.179 457.044 103.761C455.733 104.321 454.42 105 453.107 105.8L453.054 115.353C453.04 117.686 453.302 119.716 453.837 121.442C454.395 123.146 455.314 124.58 456.594 125.743C457.874 126.884 459.571 127.766 461.683 128.389C463.795 128.99 466.421 129.364 469.561 129.513L469.544 132.588L409.055 132.249L409.072 129.173ZM495.222 129.657C497.185 129.602 498.898 129.47 500.36 129.26C501.823 129.028 503.079 128.654 504.129 128.136C505.179 127.597 506.044 126.882 506.726 125.992C507.407 125.079 507.948 123.894 508.349 122.435C508.771 120.976 509.065 119.211 509.229 117.14C509.393 115.069 509.483 112.616 509.499 109.78C509.515 107.01 509.419 104.6 509.213 102.549C509.006 100.497 508.656 98.7396 508.162 97.2755C507.691 95.8116 507.065 94.6085 506.285 93.6663C505.527 92.7242 504.583 91.9883 503.451 91.4585C502.342 90.907 501.036 90.5289 499.532 90.3242C498.05 90.0978 496.36 89.9793 494.463 89.9686L494.48 86.9262L538.399 84.2281L538.212 117.597C538.2 119.734 538.386 121.556 538.77 123.063C539.176 124.57 539.878 125.818 540.876 126.805C541.874 127.77 543.222 128.508 544.92 129.019C546.618 129.53 548.776 129.848 551.392 129.972L551.375 133.047L495.205 132.732L495.222 129.657ZM559.041 116.012C559.059 112.806 559.729 110.04 561.05 107.714C562.372 105.366 564.161 103.435 566.416 101.921C568.671 100.407 571.283 99.2871 574.253 98.5622C577.245 97.8374 580.399 97.4844 583.714 97.5029C586.222 97.517 588.479 97.6278 590.484 97.8354C592.511 98.043 594.342 98.3477 595.975 98.7495C597.631 99.1513 599.122 99.6395 600.449 100.214C601.798 100.789 603.059 101.439 604.233 102.165L604.237 101.413C604.25 99.2321 603.976 97.4421 603.417 96.0431C602.858 94.6223 601.97 93.505 600.753 92.6912C599.536 91.8774 597.969 91.3124 596.052 90.9964C594.156 90.6804 591.856 90.5148 589.151 90.4996L589.168 87.4572L633.742 84.7628L633.554 118.197C633.546 119.614 633.583 120.901 633.664 122.058C633.744 123.192 633.935 124.208 634.235 125.104C634.536 125.978 634.968 126.743 635.531 127.401C636.095 128.037 636.844 128.575 637.779 129.017C638.737 129.458 639.901 129.814 641.274 130.083C642.668 130.331 644.347 130.493 646.309 130.569L646.292 133.644C644.809 133.636 643.021 133.637 640.927 133.647C638.833 133.657 636.597 133.677 634.22 133.708C631.864 133.738 629.454 133.768 626.989 133.798C624.525 133.828 622.169 133.858 619.922 133.889C617.697 133.92 615.658 133.942 613.804 133.953C611.95 133.964 610.467 133.967 609.355 133.961C608.875 133.958 608.396 133.835 607.917 133.593C607.461 133.35 607.026 133.032 606.614 132.637C606.224 132.22 605.856 131.749 605.51 131.224C605.164 130.677 604.883 130.108 604.669 129.518C603.858 130.255 602.894 130.947 601.778 131.596C600.684 132.222 599.318 132.77 597.679 133.241C596.063 133.712 594.109 134.072 591.817 134.32C589.548 134.591 586.842 134.718 583.702 134.7C579.972 134.679 576.584 134.17 573.536 133.171C570.488 132.151 567.889 130.795 565.74 129.103C563.59 127.39 561.933 125.407 560.768 123.154C559.602 120.901 559.027 118.52 559.041 116.012ZM590.84 116.06C590.829 118.088 590.895 119.91 591.038 121.524C591.204 123.139 591.491 124.515 591.899 125.651C592.307 126.788 592.847 127.663 593.52 128.278C594.192 128.87 595.052 129.17 596.099 129.175C597.8 129.185 599.362 128.845 600.783 128.155C602.205 127.443 603.312 126.49 604.103 125.294L604.209 106.386C603.472 105.705 602.723 105.134 601.962 104.672C601.201 104.188 600.451 103.802 599.711 103.514C598.993 103.227 598.307 103.026 597.653 102.914C597 102.779 596.4 102.71 595.855 102.707C594.11 102.698 592.839 103.792 592.042 105.99C591.266 108.189 590.865 111.545 590.84 116.06Z" fill="black"/>
</svg>
