<svg width="651" height="153" viewBox="0 0 651 153" fill="none" xmlns="http://www.w3.org/2000/svg">
<circle cx="75" cy="76" r="75" fill="white"/>
<path d="M237.761 53.2112C240.684 53.1185 243.118 52.8268 245.061 52.3361C247.005 51.8454 248.558 51.1234 249.719 50.1703C250.902 49.1955 251.738 47.957 252.226 46.4548C252.715 44.9526 252.965 43.1329 252.977 40.9956L253.026 32.1627L238.861 32.0832L238.878 29.0081L253.049 28.1061L253.089 20.9417C253.102 18.7389 253.538 16.8112 254.398 15.1584C255.279 13.484 256.509 12.0514 258.086 10.8607C259.663 9.64812 261.566 8.65552 263.795 7.88286C266.024 7.11019 268.503 6.5025 271.232 6.05979C273.96 5.59526 276.896 5.28457 280.037 5.12771C283.179 4.94904 286.473 4.86936 289.919 4.88869C294.302 4.91327 298.063 5.17427 301.201 5.6717C304.339 6.14731 306.909 6.81603 308.911 7.67786C310.912 8.51787 312.379 9.52937 313.31 10.7123C314.263 11.8954 314.736 13.2067 314.728 14.6461C314.721 15.7366 314.389 16.7598 313.729 17.7158C313.069 18.6499 312.116 19.4734 310.869 20.1861C309.622 20.877 308.092 21.4246 306.279 21.8288C304.467 22.2113 302.394 22.3959 300.06 22.3828C297.945 22.371 295.961 22.1854 294.109 21.826C292.279 21.4668 290.679 20.9889 289.308 20.3923C287.938 19.7958 286.862 19.1136 286.081 18.3459C285.3 17.5563 284.912 16.7254 284.917 15.853C284.922 15.0024 285.199 14.2079 285.748 13.4694C286.298 12.731 287.108 12.0921 288.18 11.5529C289.274 10.9919 290.639 10.5634 292.277 10.2672C293.914 9.94926 295.813 9.79633 297.972 9.80844C297.188 9.47689 296.307 9.22113 295.326 9.04115C294.346 8.83936 293.321 8.73547 292.253 8.72947C289.919 8.71639 288.031 8.913 286.59 9.3193C285.148 9.72561 284.01 10.2972 283.177 11.0341C282.366 11.7493 281.816 12.6077 281.527 13.6093C281.238 14.611 281.09 15.7116 281.083 16.9111C281.075 18.3505 281.101 19.6702 281.159 20.8701C281.24 22.0701 281.321 23.1284 281.403 24.0448C281.507 24.9615 281.601 25.7253 281.685 26.3365C281.769 26.9258 281.81 27.3514 281.809 27.6131L281.808 27.8094L302.712 27.9266L302.687 32.4412L281.782 32.324L281.733 41.1568C281.72 43.4904 282.112 45.4229 282.911 46.9541C283.709 48.4852 284.902 49.7242 286.488 50.671C288.097 51.596 290.089 52.2724 292.464 52.7001C294.839 53.1278 297.596 53.4159 300.736 53.5644L300.719 56.6395L237.744 56.2863L237.761 53.2112ZM316.279 49.4967C316.29 47.5775 316.888 45.9887 318.072 44.7303C319.257 43.472 320.822 42.4884 322.767 41.7795C324.713 41.0489 326.929 40.5488 329.417 40.2792C331.927 39.9879 334.501 39.8497 337.14 39.8645C339.474 39.8776 341.764 39.9122 344.01 39.9685C346.256 40.0247 348.371 40.102 350.355 40.2003C352.361 40.277 354.182 40.3745 355.817 40.4927C357.452 40.6109 358.825 40.7386 359.937 40.8757L359.977 33.7767C359.987 32.0319 359.744 30.5583 359.249 29.356C358.776 28.1538 358.029 27.1899 357.008 26.4645C356.009 25.7173 354.725 25.1758 353.157 24.8398C351.588 24.5039 349.735 24.3299 347.598 24.3179C346.05 24.3092 344.49 24.3223 342.92 24.3571C341.371 24.3921 339.942 24.4495 338.633 24.5294C340.683 24.5409 342.558 24.7041 344.257 25.0189C345.957 25.312 347.416 25.7346 348.634 26.2867C349.852 26.8387 350.786 27.5092 351.436 28.298C352.108 29.0651 352.441 29.9285 352.436 30.8881C352.43 31.9786 352.032 32.936 351.242 33.7604C350.452 34.5629 349.369 35.233 347.992 35.7705C346.637 36.3082 345.031 36.7136 343.176 36.9867C341.342 37.2599 339.368 37.3906 337.252 37.3788C335.311 37.3679 333.458 37.1721 331.694 36.7914C329.951 36.4109 328.406 35.9006 327.057 35.2605C325.708 34.5987 324.633 33.8293 323.831 32.9524C323.051 32.0538 322.664 31.0919 322.669 30.0669C322.675 28.9982 323.095 28.03 323.929 27.1623C324.784 26.2947 325.923 25.5377 327.344 24.8914C328.787 24.2233 330.448 23.6547 332.326 23.1854C334.226 22.7162 336.224 22.3348 338.32 22.0413C340.437 21.726 342.597 21.5091 344.801 21.3906C347.005 21.2503 349.131 21.1859 351.182 21.1974C354.213 21.2144 357.277 21.2643 360.374 21.347C363.47 21.408 366.457 21.5775 369.335 21.8553C372.212 22.1332 374.914 22.5518 377.441 23.1112C379.968 23.6707 382.167 24.4464 384.037 25.4383C385.907 26.4303 387.372 27.6708 388.432 29.1598C389.515 30.649 390.05 32.4731 390.037 34.6323L389.994 42.451C389.982 44.4793 390.104 46.1266 390.358 47.3931C390.635 48.6378 391.011 49.6105 391.487 50.3111C391.963 50.9898 392.528 51.451 393.181 51.6946C393.834 51.9164 394.531 52.0293 395.272 52.0335C395.949 52.0373 396.593 51.91 397.205 51.6517C397.817 51.3716 398.365 50.9603 398.848 50.4178C399.33 49.8752 399.727 49.2013 400.037 48.3961C400.347 47.569 400.526 46.6213 400.576 45.5529L404.273 45.5736C404.262 47.5365 403.958 49.225 403.361 50.6394C402.764 52.0319 401.929 53.2158 400.855 54.1913C399.802 55.1668 398.544 55.945 397.079 56.5256C395.615 57.0845 394.009 57.5226 392.263 57.8399C390.538 58.1574 388.705 58.3543 386.763 58.4307C384.822 58.5288 382.837 58.5722 380.808 58.5609C378.344 58.547 376.065 58.4797 373.972 58.3589C371.901 58.2383 370.037 57.9879 368.382 57.6079C366.726 57.2496 365.301 56.7291 364.105 56.0463C362.909 55.3634 361.966 54.453 361.274 53.315C360.354 53.9423 359.184 54.5574 357.763 55.1601C356.364 55.7629 354.605 56.3092 352.487 56.799C350.39 57.267 347.88 57.6347 344.956 57.9018C342.032 58.1907 338.607 58.3242 334.681 58.3022C332.108 58.2877 329.699 58.0779 327.455 57.6728C325.232 57.2677 323.283 56.6897 321.608 55.9388C319.955 55.188 318.651 54.2755 317.698 53.2015C316.744 52.1056 316.271 50.8707 316.279 49.4967ZM345.24 48.0561C345.238 48.4922 345.322 48.9616 345.494 49.4642C345.688 49.9452 345.991 50.394 346.403 50.8107C346.836 51.2275 347.391 51.5796 348.065 51.8669C348.762 52.1325 349.622 52.2682 350.647 52.2739C351.236 52.2772 351.88 52.27 352.578 52.2521C353.298 52.2343 354.061 52.184 354.869 52.1013C355.676 51.9968 356.528 51.838 357.423 51.6249C358.319 51.4118 359.247 51.1117 360.209 50.7245C359.996 49.8291 359.893 48.7598 359.9 47.5167L359.919 44.0162C358.982 43.9674 358.033 43.9402 357.074 43.9349C356.114 43.9077 355.187 43.8916 354.293 43.8865C352.81 43.8782 351.501 43.9254 350.366 44.0281C349.232 44.1308 348.282 44.3436 347.517 44.6664C346.773 44.9676 346.204 45.3897 345.808 45.9327C345.435 46.4759 345.245 47.1837 345.24 48.0561ZM411.337 54.1846C413.3 54.1302 415.013 53.9762 416.476 53.7227C417.938 53.4692 419.195 53.0619 420.245 52.5007C421.295 51.9395 422.16 51.1919 422.842 50.2579C423.523 49.3239 424.064 48.1382 424.465 46.701C424.887 45.2421 425.181 43.4989 425.345 41.4715C425.509 39.4222 425.599 37.0345 425.614 34.3083C425.637 30.1645 425.372 26.8043 424.82 24.2276C424.267 21.6508 423.384 19.6503 422.171 18.2258C420.958 16.7795 419.393 15.8002 417.476 15.2878C415.582 14.7755 413.282 14.5118 410.578 14.4967L410.595 11.4542L454.514 8.75614L454.406 28.0576C456.374 27.1962 458.385 26.3896 460.439 25.6378C462.515 24.8861 464.624 24.2327 466.764 23.6776C468.926 23.1227 471.121 22.6879 473.347 22.3732C475.574 22.0585 477.854 21.9077 480.187 21.9208C481.387 21.9276 482.608 21.978 483.85 22.0722C485.093 22.1664 486.302 22.3913 487.478 22.7469C488.676 23.0808 489.796 23.5887 490.839 24.2706C491.882 24.9308 492.782 25.8519 493.539 27.0339C494.318 28.1942 494.931 29.648 495.379 31.3953C495.828 33.1427 496.045 35.2486 496.031 37.7131C496.026 38.5418 495.989 39.3922 495.919 40.2642C495.87 41.1146 495.843 42.0522 495.837 43.0773C495.83 44.3641 495.845 45.5419 495.883 46.6108C495.942 47.6798 496.09 48.6512 496.325 49.5249C496.56 50.3769 496.915 51.1313 497.392 51.7883C497.89 52.4236 498.574 52.9618 499.444 53.4029C500.335 53.8222 501.446 54.1447 502.775 54.3703C504.104 54.5958 505.728 54.714 507.648 54.7248L507.63 57.7999L461.961 57.5438L461.975 55.0575C462.676 54.6034 463.268 54.007 463.752 53.2681C464.236 52.5075 464.623 51.5827 464.912 50.4938C465.224 49.4051 465.449 48.1304 465.588 46.6699C465.727 45.1876 465.802 43.4977 465.813 41.6003C465.827 39.1794 465.663 37.2483 465.322 35.8069C465.003 34.3657 464.551 33.2726 463.966 32.5278C463.382 31.7611 462.687 31.2665 461.881 31.0439C461.097 30.8214 460.247 30.7076 459.331 30.7024C458.568 30.6982 457.76 30.7809 456.909 30.9506C456.079 31.0986 455.238 31.312 454.386 31.5907L454.327 42.1248C454.316 44.0222 454.372 45.6801 454.495 47.0984C454.618 48.495 454.819 49.7066 455.097 50.7332C455.396 51.76 455.784 52.6237 456.26 53.3242C456.736 54.003 457.321 54.5734 458.017 55.0353L458.003 57.5216L411.319 57.2598L411.337 54.1846ZM515.264 40.7326C515.282 37.5702 516.235 34.8275 518.123 32.5044C520.034 30.1596 522.717 28.2335 526.171 26.7262C529.626 25.197 533.765 24.0752 538.589 23.3607C543.413 22.6244 548.77 22.2727 554.658 22.3058C560.525 22.3387 565.866 22.7503 570.682 23.5407C575.519 24.3093 579.646 25.4775 583.061 27.0452C586.499 28.5912 589.149 30.5472 591.011 32.9131C592.895 35.2574 593.829 38.0107 593.811 41.1731C593.793 44.3137 592.829 47.0454 590.919 49.3684C589.03 51.6915 586.358 53.6177 582.904 55.1468C579.471 56.6543 575.332 57.7652 570.486 58.4796C565.662 59.2159 560.316 59.5676 554.449 59.5347C548.561 59.5016 543.209 59.0899 538.393 58.2996C533.577 57.531 529.451 56.3738 526.014 54.8278C522.576 53.26 519.916 51.3039 518.031 48.9597C516.169 46.6155 515.246 43.8732 515.264 40.7326ZM547.88 40.9155C547.869 42.9438 548.01 44.8748 548.306 46.7085C548.601 48.5422 549.028 50.1586 549.587 51.5576C550.168 52.9349 550.86 54.0402 551.662 54.8735C552.486 55.6851 553.422 56.0938 554.469 56.0997C555.494 56.1054 556.412 55.7071 557.224 54.9046C558.057 54.0805 558.761 52.9831 559.336 51.6122C559.932 50.2197 560.389 48.6083 560.704 46.778C561.02 44.9477 561.183 43.0185 561.195 40.9902C561.206 38.9401 561.064 36.9982 560.769 35.1645C560.474 33.3089 560.036 31.6816 559.455 30.2825C558.896 28.8835 558.205 27.7673 557.38 26.9339C556.578 26.1006 555.664 25.6811 554.639 25.6753C553.593 25.6695 552.652 26.0786 551.819 26.9027C551.007 27.7269 550.303 28.8353 549.707 30.2278C549.132 31.6205 548.686 33.2428 548.371 35.0949C548.055 36.9252 547.891 38.8654 547.88 40.9155ZM212.148 140.144C211.631 139.007 211.039 137.662 210.371 136.11C209.726 134.536 209.026 132.875 208.273 131.126C207.541 129.355 206.766 127.562 205.948 125.747C205.151 123.911 204.343 122.172 203.523 120.532C202.704 118.87 201.894 117.371 201.095 116.036C200.295 114.68 199.538 113.596 198.823 112.785C198.172 112.083 197.412 111.49 196.543 111.005C195.695 110.499 194.825 110.091 193.932 109.78C193.04 109.448 192.158 109.214 191.286 109.078C190.437 108.921 189.685 108.84 189.03 108.837L189.048 105.762L237.138 106.031L237.12 109.106C235.572 109.098 234.338 109.331 233.42 109.805C232.523 110.258 232.072 110.877 232.068 111.663C232.066 112.077 232.171 112.765 232.384 113.725C232.618 114.665 232.928 115.79 233.313 117.1C233.72 118.389 234.181 119.821 234.696 121.394C235.233 122.945 235.812 124.541 236.436 126.18C237.059 127.797 237.715 129.415 238.404 131.033C239.093 132.651 239.783 134.16 240.473 135.559C240.914 134.667 241.411 133.58 241.963 132.296C242.516 130.991 243.069 129.609 243.622 128.151C244.176 126.671 244.719 125.158 245.251 123.612C245.783 122.067 246.249 120.597 246.649 119.203C247.072 117.788 247.406 116.514 247.652 115.381C247.92 114.227 248.057 113.301 248.06 112.603C248.065 111.84 247.948 111.239 247.711 110.802C247.495 110.342 247.148 109.991 246.67 109.749C246.191 109.506 245.592 109.35 244.873 109.281C244.154 109.19 243.293 109.141 242.289 109.135L242.307 106.06L286.405 106.308L286.388 109.383C284.404 109.372 282.919 109.647 281.934 110.208C280.971 110.77 280.488 111.443 280.483 112.229C280.481 112.621 280.587 113.287 280.799 114.226C281.034 115.165 281.355 116.29 281.762 117.601C282.169 118.89 282.641 120.31 283.178 121.862C283.714 123.414 284.305 125.009 284.95 126.648C285.595 128.266 286.262 129.884 286.951 131.501C287.662 133.098 288.373 134.585 289.085 135.963C289.504 135.158 290.001 134.081 290.576 132.732C291.15 131.361 291.748 129.882 292.367 128.293C292.987 126.683 293.596 125.028 294.194 123.331C294.793 121.633 295.325 120.054 295.791 118.596C296.279 117.115 296.668 115.831 296.958 114.742C297.269 113.631 297.426 112.869 297.429 112.454C297.431 112.106 297.356 111.756 297.206 111.406C297.077 111.057 296.806 110.739 296.393 110.453C295.98 110.145 295.382 109.902 294.598 109.723C293.836 109.523 292.822 109.419 291.557 109.412L291.574 106.337L313.918 106.462L313.901 109.537C311.262 109.522 309.024 109.87 307.188 110.579C305.374 111.267 304.016 112.371 303.113 113.893C302.585 114.806 301.978 115.97 301.294 117.383C300.632 118.797 299.936 120.342 299.207 122.017C298.478 123.671 297.749 125.401 297.019 127.207C296.289 128.991 295.592 130.721 294.929 132.397C294.265 134.072 293.667 135.629 293.136 137.065C292.605 138.48 292.173 139.655 291.84 140.591L260.762 140.417C260.46 139.695 260.105 138.799 259.697 137.728C259.289 136.657 258.848 135.499 258.375 134.253C257.903 132.985 257.397 131.663 256.86 130.286C256.344 128.887 255.807 127.532 255.247 126.22C254.709 124.887 254.171 123.619 253.632 122.416C253.094 121.213 252.566 120.153 252.047 119.234C251.563 120.103 251.044 121.126 250.492 122.3C249.941 123.453 249.378 124.693 248.803 126.02C248.229 127.326 247.665 128.664 247.112 130.035C246.559 131.406 246.028 132.733 245.519 134.017C245.033 135.279 244.579 136.466 244.158 137.576C243.759 138.664 243.427 139.578 243.161 140.318L212.148 140.144ZM321.229 123.646C321.246 120.483 322.2 117.741 324.088 115.417C325.999 113.073 328.681 111.147 332.136 109.639C335.591 108.11 339.73 106.988 344.554 106.274C349.378 105.538 354.734 105.186 360.623 105.219C366.49 105.252 371.831 105.663 376.647 106.454C381.484 107.222 385.611 108.391 389.026 109.958C392.463 111.504 395.113 113.46 396.976 115.826C398.86 118.171 399.793 120.924 399.776 124.086C399.758 127.227 398.794 129.959 396.883 132.282C394.995 134.605 392.323 136.531 388.869 138.06C385.436 139.567 381.297 140.678 376.451 141.393C371.627 142.129 366.281 142.481 360.414 142.448C354.526 142.415 349.174 142.003 344.358 141.213C339.542 140.444 335.416 139.287 331.978 137.741C328.541 136.173 325.88 134.217 323.996 131.873C322.133 129.529 321.211 126.786 321.229 123.646ZM353.845 123.829C353.833 125.857 353.975 127.788 354.27 129.622C354.565 131.455 354.993 133.072 355.552 134.471C356.133 135.848 356.825 136.953 357.627 137.787C358.451 138.598 359.387 139.007 360.434 139.013C361.459 139.019 362.377 138.62 363.188 137.818C364.022 136.994 364.726 135.896 365.301 134.525C365.897 133.133 366.353 131.521 366.669 129.691C366.985 127.861 367.148 125.932 367.16 123.903C367.171 121.853 367.029 119.911 366.734 118.078C366.439 116.222 366.001 114.595 365.42 113.196C364.861 111.797 364.169 110.68 363.345 109.847C362.543 109.014 361.629 108.594 360.604 108.588C359.557 108.583 358.617 108.992 357.784 109.816C356.972 110.64 356.268 111.748 355.671 113.141C355.096 114.534 354.651 116.156 354.335 118.008C354.02 119.838 353.856 121.779 353.845 123.829ZM409.066 138.173C411.989 138.081 414.423 137.713 416.368 137.069C418.313 136.426 419.866 135.529 421.029 134.38C422.213 133.231 423.05 131.829 423.539 130.174C424.028 128.519 424.278 126.623 424.29 124.485C424.303 122.304 424.03 120.438 423.471 118.887C422.913 117.313 422.026 116.032 420.81 115.044C419.594 114.034 418.028 113.294 416.111 112.826C414.217 112.357 411.917 112.115 409.213 112.1L409.23 109.025L453.149 106.327L453.122 111.168C454.348 110.325 455.726 109.58 457.256 108.934C458.787 108.267 460.393 107.709 462.075 107.26C463.757 106.79 465.493 106.44 467.283 106.21C469.072 105.98 470.84 105.87 472.584 105.88C475.289 105.895 477.621 106.137 479.581 106.606C481.564 107.075 483.196 107.738 484.478 108.596C485.781 109.432 486.735 110.441 487.34 111.622C487.966 112.781 488.275 114.07 488.267 115.488C488.261 116.556 487.928 117.601 487.268 118.623C486.608 119.644 485.654 120.566 484.406 121.387C483.158 122.187 481.617 122.833 479.782 123.324C477.969 123.816 475.896 124.055 473.562 124.042C471.447 124.03 469.528 123.856 467.807 123.519C466.108 123.182 464.649 122.716 463.431 122.12C462.213 121.503 461.269 120.778 460.597 119.945C459.947 119.113 459.625 118.195 459.631 117.192C459.638 116.014 459.992 115.002 460.695 114.155C461.42 113.287 462.34 112.583 463.455 112.044C464.592 111.484 465.849 111.065 467.224 110.789C468.6 110.514 469.953 110.369 471.283 110.354C469.277 110.343 467.444 110.42 465.786 110.585C464.149 110.75 462.61 111.014 461.169 111.377C459.727 111.718 458.351 112.179 457.039 112.761C455.727 113.32 454.415 114 453.101 114.8L453.048 124.352C453.035 126.686 453.296 128.716 453.832 130.442C454.389 132.146 455.308 133.58 456.588 134.743C457.869 135.884 459.565 136.766 461.677 137.389C463.789 137.989 466.415 138.364 469.555 138.512L469.538 141.588L409.049 141.248L409.066 138.173ZM495.216 138.656C497.179 138.602 498.892 138.47 500.355 138.26C501.817 138.028 503.074 137.654 504.123 137.136C505.173 136.597 506.039 135.882 506.72 134.991C507.401 134.079 507.942 132.893 508.343 131.434C508.765 129.976 509.059 128.211 509.223 126.14C509.387 124.068 509.478 121.615 509.493 118.78C509.509 116.01 509.413 113.6 509.207 111.548C509 109.497 508.65 107.739 508.157 106.275C507.685 104.811 507.059 103.608 506.28 102.666C505.522 101.724 504.577 100.988 503.446 100.458C502.337 99.9068 501.03 99.5287 499.526 99.324C498.044 99.0975 496.355 98.979 494.457 98.9684L494.474 95.9259L538.394 93.2279L538.206 126.596C538.194 128.734 538.381 130.556 538.765 132.063C539.171 133.57 539.872 134.817 540.87 135.804C541.868 136.77 543.216 137.508 544.914 138.019C546.613 138.53 548.77 138.848 551.387 138.971L551.37 142.047L495.199 141.732L495.216 138.656ZM559.035 125.012C559.053 121.806 559.723 119.04 561.045 116.714C562.367 114.366 564.155 112.434 566.41 110.92C568.665 109.406 571.277 108.287 574.248 107.562C577.24 106.837 580.393 106.484 583.708 106.503C586.217 106.517 588.473 106.628 590.479 106.835C592.506 107.043 594.336 107.347 595.97 107.749C597.625 108.151 599.116 108.639 600.443 109.214C601.793 109.788 603.054 110.439 604.228 111.165L604.232 110.413C604.244 108.232 603.97 106.442 603.411 105.043C602.852 103.622 601.964 102.505 600.747 101.691C599.531 100.877 597.963 100.312 596.046 99.9961C594.15 99.6801 591.85 99.5146 589.146 99.4994L589.163 96.457L633.736 93.7626L633.549 127.197C633.541 128.614 633.577 129.901 633.658 131.058C633.739 132.192 633.929 133.207 634.23 134.103C634.53 134.977 634.962 135.743 635.525 136.401C636.089 137.036 636.838 137.575 637.774 138.016C638.731 138.458 639.896 138.813 641.268 139.083C642.663 139.331 644.341 139.493 646.304 139.569L646.287 142.644C644.803 142.636 643.015 142.637 640.921 142.647C638.827 142.657 636.592 142.677 634.214 142.707C631.859 142.738 629.448 142.768 626.984 142.798C624.519 142.828 622.163 142.858 619.917 142.889C617.692 142.92 615.652 142.941 613.798 142.953C611.945 142.964 610.461 142.967 609.349 142.961C608.869 142.958 608.39 142.835 607.912 142.593C607.455 142.35 607.021 142.031 606.608 141.637C606.218 141.22 605.85 140.749 605.504 140.224C605.158 139.676 604.878 139.108 604.663 138.518C603.852 139.255 602.888 139.947 601.772 140.595C600.678 141.222 599.312 141.77 597.674 142.241C596.057 142.712 594.103 143.071 591.812 143.32C589.542 143.591 586.837 143.718 583.696 143.7C579.967 143.679 576.578 143.169 573.53 142.171C570.483 141.15 567.884 139.795 565.734 138.103C563.584 136.39 561.927 134.407 560.762 132.154C559.597 129.901 559.021 127.52 559.035 125.012ZM590.834 125.06C590.823 127.088 590.889 128.909 591.033 130.524C591.198 132.139 591.485 133.515 591.893 134.651C592.301 135.788 592.841 136.663 593.514 137.277C594.187 137.87 595.047 138.169 596.094 138.175C597.795 138.185 599.356 137.845 600.778 137.155C602.199 136.443 603.306 135.489 604.098 134.294L604.204 115.385C603.466 114.705 602.717 114.134 601.956 113.672C601.195 113.187 600.445 112.802 599.705 112.514C598.987 112.226 598.301 112.026 597.648 111.913C596.994 111.779 596.395 111.71 595.849 111.707C594.105 111.697 592.833 112.792 592.036 114.99C591.26 117.188 590.86 120.545 590.834 125.06Z" fill="white"/>
</svg>
