<svg width="1401" height="167" viewBox="0 0 1401 167" fill="none" xmlns="http://www.w3.org/2000/svg">
<rect width="1401" height="167" fill="#F5F5F5"/>
<rect width="1400" height="166" fill="#E2A182"/>
<path d="M0.462323 1.37576C0.0513692 2.27607 -0.0856154 39.8317 0.0513692 84.7185L0.462323 166.389H27.1743H53.8863L54.5712 132.306L55.2562 98.2231L89.9133 97.8372L124.433 97.58V81.5031V65.4262H91.6941C73.6121 65.4262 57.9959 65.0403 56.763 64.6545C53.4754 63.4969 53.4754 35.2016 56.763 34.044C57.9959 33.6582 76.4888 33.2724 97.8584 33.2724H136.899L136.488 16.8096L136.077 0.475455L68.5437 0.0896095C15.2567 -0.167621 0.873277 0.0896095 0.462323 1.37576Z" fill="black"/>
<path d="M201.093 1.53588C168.335 115.192 154.645 163.317 154.645 164.725C154.645 166.005 158.654 166.389 173.713 166.389H192.683L196.008 152.566L199.235 138.871L221.628 138.487C236.295 138.359 244.314 138.615 244.998 139.511C245.585 140.279 247.443 146.422 249.007 153.334L252.039 165.749L271.791 166.133C284.601 166.261 291.544 166.005 291.544 165.109C291.544 164.213 252.528 27.3902 245.096 2.17584C244.412 0.255964 242.456 -1.90735e-05 222.997 -1.90735e-05C206.667 -1.90735e-05 201.386 0.383956 201.093 1.53588ZM230.331 72.3153C233.851 87.0343 236.784 100.217 236.784 101.369C236.784 103.417 235.513 103.673 223.094 103.673C212.24 103.673 209.209 103.289 208.818 101.881C208.329 100.217 219.379 50.5567 221.334 45.565C221.823 44.2851 222.703 43.7731 223.094 44.2851C223.583 44.9251 226.81 57.4682 230.331 72.3153Z" fill="black"/>
<path d="M309.29 83.1946V166.389H330.646H352.002L352.221 132.727L352.55 99.1935H377.192H401.834L402.381 132.471L402.929 165.749L424.614 166.133L446.189 166.389L445.97 83.5785L445.641 0.639939H424.285H402.929L402.381 29.4381L401.834 58.2362H377.192H352.55L352.221 29.0541L352.002 -1.90735e-05H330.646H309.29V83.1946Z" fill="black"/>
<path d="M515.193 1.66448C483.893 8.71709 466.051 34.8241 464.114 76.5211C462.075 119.827 477.47 151.254 506.017 161.771C528.65 170.185 557.605 166.844 574.325 153.852C581.462 148.284 590.434 136.159 594.104 127.003C599.61 113.393 600.833 105.35 600.833 82.7076C600.833 64.7667 600.527 61.1786 598.488 53.0124C592.575 29.9986 581.462 14.7799 564.64 6.48995C551.998 0.303454 530.587 -1.79995 515.193 1.66448ZM546.084 40.1445C552.507 43.9801 556.789 50.5378 559.338 60.3125C561.683 69.7159 561.683 96.5653 559.236 106.34C555.464 121.806 546.594 129.972 533.544 130.22C524.572 130.344 519.577 128.24 514.071 122.054C508.566 115.991 505.711 107.701 504.386 94.2145C502.346 74.0465 505.711 54.9921 512.95 45.8361C521.106 35.4427 534.258 33.2156 546.084 40.1445Z" fill="black"/>
<path d="M874.034 1.66448C844.266 8.71709 827.297 34.8241 825.455 76.5211C823.515 119.827 838.157 151.254 865.307 161.771C886.833 170.185 914.371 166.844 930.273 153.852C937.06 148.284 945.593 136.159 949.084 127.003C954.32 113.393 955.483 105.35 955.483 82.7076C955.483 64.7667 955.193 61.1786 953.253 53.0124C947.629 29.9986 937.06 14.7799 921.061 6.48995C909.038 0.303454 888.675 -1.79995 874.034 1.66448ZM903.414 40.1445C909.522 43.9801 913.595 50.5378 916.019 60.3125C918.249 69.7159 918.249 96.5653 915.922 106.34C912.334 121.806 903.899 129.972 891.487 130.22C882.954 130.344 878.203 128.24 872.967 122.054C867.731 115.991 865.016 107.701 863.755 94.2145C861.816 74.0465 865.016 54.9921 871.9 45.8361C879.657 35.4427 892.166 33.2156 903.414 40.1445Z" fill="black"/>
<path d="M677 1.62463C677 2.52009 681.599 39.8735 687.203 84.5186L697.406 165.75L710.986 166.133C718.459 166.261 724.854 166.005 725.141 165.494C725.429 164.854 729.165 142.34 733.332 115.22C737.572 88.1004 741.308 65.2022 741.595 64.1789C742.53 60.9808 743.535 66.0977 751.367 115.988C755.463 142.468 759.056 164.726 759.271 165.238C759.487 165.877 765.81 166.389 773.282 166.389C783.485 166.389 787.006 166.005 787.222 164.726C788.156 160.633 807.484 1.88047 807.197 0.985014C806.909 0.0895548 781.114 -0.294214 781.114 0.601246C781.114 0.985014 779.031 20.941 776.444 45.1184C772.133 84.7744 771.055 92.5777 770.049 90.7868C769.833 90.531 766.744 71.2146 763.151 48.0606C759.559 24.7787 756.325 4.56685 755.966 2.90386C755.319 0.0895548 755.104 0.0895548 742.027 0.0895548H728.734L727.944 5.46231C723.417 35.6521 714.795 89.2517 714.292 90.1472C713.932 90.7868 713.429 91.0426 713.214 90.6589C712.998 90.403 710.771 70.3192 708.184 46.2697C705.669 22.2202 703.37 2.0084 703.154 1.36878C702.436 -0.677982 676.928 -0.294214 677 1.62463Z" fill="black"/>
<path d="M973.567 83.1946V166.389H993.558H1013.55V134.519C1013.55 116.984 1013.86 101.753 1014.16 100.601C1014.99 98.0416 1021.55 97.9136 1026.26 100.345C1030.98 102.777 1033.23 106.873 1046.87 138.487L1058.86 166.389H1081.32C1093.72 166.389 1103.77 166.005 1103.77 165.621C1103.77 165.109 1099.15 153.59 1093.52 140.023C1081.83 111.993 1076.39 102.777 1068.19 97.0177C1065.12 94.8418 1062.96 92.666 1063.48 92.154C1063.89 91.642 1066.76 90.2341 1069.73 88.9542C1072.7 87.8023 1077.42 84.4745 1080.29 81.6587C1090.23 71.8033 1094.13 59.7721 1093.31 41.2133C1092.28 18.9427 1081.83 5.11964 1062.76 1.40788C1058.97 0.639928 1038.56 -1.90735e-05 1014.88 -1.90735e-05H973.567V83.1946ZM1046.97 34.8137C1056.3 41.0853 1055.28 58.8761 1045.43 64.3798C1039.38 67.8356 1015.91 69.2435 1014.47 66.4277C1013.45 64.3798 1013.24 37.1176 1014.16 33.9178C1014.78 31.9979 1016.52 31.8699 1029.34 32.2539C1040.41 32.6379 1044.51 33.1498 1046.97 34.8137Z" fill="black"/>
<path d="M1122.73 0.890184C1122.23 1.2717 1121.85 38.5332 1121.85 83.4251V165.197L1126.02 165.96C1128.16 166.341 1157.34 166.469 1190.68 166.341L1251.29 165.96L1251.67 146.503L1252.05 127.172H1216.18C1196.36 127.172 1178.43 126.791 1176.28 126.409L1172.36 125.519V64.8579C1172.36 31.4116 1171.99 3.17929 1171.61 2.03474C1170.97 0.254322 1167.57 -2.29198e-05 1147.23 -2.29198e-05C1134.23 -2.29198e-05 1123.11 0.381494 1122.73 0.890184Z" fill="black"/>
<path d="M1270.35 83.1303L1270.68 166.389H1308.88C1341.95 166.389 1348.17 166.132 1355.48 164.076C1367.81 160.736 1375.89 155.468 1383.31 146.088C1396.3 129.514 1400.22 115.252 1400.33 84.1582C1400.33 67.0696 1399.9 61.8017 1397.93 53.3216C1391.6 25.3117 1378.62 8.73703 1358.1 2.56971C1350.24 0.256964 1345.98 -7.22706e-06 1309.75 -7.22706e-06H1270.13L1270.35 83.1303ZM1341.18 38.9312C1352.97 45.0985 1356.46 54.0925 1357.23 80.4321C1357.88 107.414 1354.61 119.363 1344.24 126.559C1341.07 128.743 1338.56 129.128 1326.89 129.128H1313.24L1312.92 84.1582C1312.81 59.4889 1312.92 38.4173 1313.24 37.3894C1314.01 34.9481 1335.73 36.1045 1341.18 38.9312Z" fill="black"/>
</svg>
